<svg width="100" height="100" viewBox="0 0 100 100" fill="none" xmlns="http://www.w3.org/2000/svg">
<rect width="100" height="100" fill="#0D0D0D"/>
<path d="M100 0H0V100H100V0Z" fill="#1E1E1E"/>
<path d="M41.2637 76.209C46.0862 76.209 50 72.2951 50 67.4727V58.7363H41.2637C36.4412 58.7363 32.5273 62.6502 32.5273 67.4727C32.5273 72.2951 36.4412 76.209 41.2637 76.209Z" fill="#0ACF83"/>
<path d="M32.5273 50.0001C32.5273 45.1776 36.4412 41.2637 41.2637 41.2637H50V58.7364H41.2637C36.4412 58.7364 32.5273 54.8225 32.5273 50.0001Z" fill="#A259FF"/>
<path d="M32.5273 32.5278C32.5273 27.7053 36.4412 23.7915 41.2637 23.7915H50V41.2642H41.2637C36.4412 41.2642 32.5273 37.3503 32.5273 32.5278Z" fill="#F24E1E"/>
<path d="M50.002 23.791H58.7383C63.5608 23.791 67.4747 27.7049 67.4747 32.5274C67.4747 37.3498 63.5608 41.2637 58.7383 41.2637H50.002V23.791Z" fill="#FF7262"/>
<path d="M67.4747 50.0001C67.4747 54.8225 63.5608 58.7364 58.7383 58.7364C53.9159 58.7364 50.002 54.8225 50.002 50.0001C50.002 45.1776 53.9159 41.2637 58.7383 41.2637C63.5608 41.2637 67.4747 45.1776 67.4747 50.0001Z" fill="#1ABCFE"/>
</svg>
